%TF.GenerationSoftware,KiCad,Pcbnew,6.0.2+dfsg-1*%
%TF.CreationDate,2022-09-06T17:18:22-04:00*%
%TF.ProjectId,main-skulls,6d61696e-2d73-46b7-956c-6c732e6b6963,rev?*%
%TF.SameCoordinates,Original*%
%TF.FileFunction,Copper,L1,Top*%
%TF.FilePolarity,Positive*%
%FSLAX46Y46*%
G04 Gerber Fmt 4.6, Leading zero omitted, Abs format (unit mm)*
G04 Created by KiCad (PCBNEW 6.0.2+dfsg-1) date 2022-09-06 17:18:22*
%MOMM*%
%LPD*%
G01*
G04 APERTURE LIST*
%TA.AperFunction,ComponentPad*%
%ADD10R,1.700000X1.700000*%
%TD*%
%TA.AperFunction,ComponentPad*%
%ADD11O,1.700000X1.700000*%
%TD*%
%TA.AperFunction,ComponentPad*%
%ADD12C,1.524000*%
%TD*%
%TA.AperFunction,ComponentPad*%
%ADD13R,1.524000X1.524000*%
%TD*%
%TA.AperFunction,ComponentPad*%
%ADD14R,1.600000X1.600000*%
%TD*%
%TA.AperFunction,ComponentPad*%
%ADD15O,1.600000X1.600000*%
%TD*%
%TA.AperFunction,ComponentPad*%
%ADD16O,1.400000X1.400000*%
%TD*%
%TA.AperFunction,ComponentPad*%
%ADD17C,1.400000*%
%TD*%
%TA.AperFunction,ComponentPad*%
%ADD18R,2.600000X2.600000*%
%TD*%
%TA.AperFunction,ComponentPad*%
%ADD19C,2.600000*%
%TD*%
%TA.AperFunction,ViaPad*%
%ADD20C,0.800000*%
%TD*%
%TA.AperFunction,Conductor*%
%ADD21C,0.250000*%
%TD*%
G04 APERTURE END LIST*
D10*
%TO.P,J2,1*%
%TO.N,GND*%
X109728000Y-93980000D03*
D11*
%TO.P,J2,2*%
%TO.N,Net-(J1-Pad2)*%
X109728000Y-91440000D03*
%TO.P,J2,3*%
%TO.N,Net-(J1-Pad3)*%
X109728000Y-88900000D03*
%TD*%
%TO.P,D2,4,A*%
%TO.N,VCC*%
X143012000Y-76835000D03*
%TO.P,D2,3,BK*%
%TO.N,Net-(D1-Pad3)*%
X140472000Y-76835000D03*
%TO.P,D2,2,GK*%
%TO.N,Net-(D1-Pad2)*%
X137932000Y-76835000D03*
D10*
%TO.P,D2,1,RK*%
%TO.N,Net-(D1-Pad1)*%
X135392000Y-76835000D03*
%TD*%
%TO.P,J3,1,Pin_1*%
%TO.N,GND*%
X121158000Y-76765000D03*
D11*
%TO.P,J3,2,Pin_2*%
%TO.N,Net-(J3-Pad2)*%
X123698000Y-76765000D03*
%TO.P,J3,3,Pin_3*%
%TO.N,Net-(J3-Pad3)*%
X126238000Y-76765000D03*
%TO.P,J3,4,Pin_4*%
%TO.N,Net-(J3-Pad4)*%
X128778000Y-76765000D03*
%TO.P,J3,5,Pin_5*%
%TO.N,VCC*%
X131318000Y-76765000D03*
%TD*%
D12*
%TO.P,U2,1,TX*%
%TO.N,unconnected-(U2-Pad1)*%
X173228000Y-96520000D03*
%TO.P,U2,2,RX*%
%TO.N,/485RO*%
X170688000Y-96520000D03*
%TO.P,U2,3,GND*%
%TO.N,unconnected-(U2-Pad3)*%
X168148000Y-96520000D03*
%TO.P,U2,4,GND*%
%TO.N,unconnected-(U2-Pad4)*%
X165608000Y-96520000D03*
%TO.P,U2,5,SDA*%
%TO.N,/SERVO_SDA*%
X163068000Y-96520000D03*
%TO.P,U2,6,SCL*%
%TO.N,/SERVO_SCL*%
X160528000Y-96520000D03*
%TO.P,U2,7,D4*%
%TO.N,/ADDR_1*%
X157988000Y-96520000D03*
%TO.P,U2,8,C6*%
%TO.N,/EYE_R*%
X155448000Y-96520000D03*
%TO.P,U2,9,D7*%
%TO.N,/EYE_G*%
X152908000Y-96520000D03*
%TO.P,U2,10,E6*%
%TO.N,/ADDR_2*%
X150368000Y-96520000D03*
%TO.P,U2,11,B4*%
%TO.N,/EYE_B*%
X147828000Y-96520000D03*
%TO.P,U2,12,B5*%
%TO.N,/ADDR_3*%
X145288000Y-96520000D03*
%TO.P,U2,13,B6*%
%TO.N,/ADDR_8*%
X145288000Y-81280000D03*
%TO.P,U2,14,B2*%
%TO.N,Net-(J3-Pad2)*%
X147828000Y-81280000D03*
%TO.P,U2,15,B3*%
%TO.N,Net-(J3-Pad3)*%
X150368000Y-81280000D03*
%TO.P,U2,16,B1*%
%TO.N,Net-(J3-Pad4)*%
X152908000Y-81280000D03*
%TO.P,U2,17,F7*%
%TO.N,/ADDR_7*%
X155448000Y-81280000D03*
%TO.P,U2,18,F6*%
%TO.N,/ADDR_6*%
X157988000Y-81280000D03*
%TO.P,U2,19,F5*%
%TO.N,/ADDR_5*%
X160528000Y-81280000D03*
%TO.P,U2,20,F4*%
%TO.N,/ADDR_4*%
X163068000Y-81280000D03*
%TO.P,U2,21,VCC*%
%TO.N,unconnected-(U2-Pad21)*%
X165608000Y-81280000D03*
%TO.P,U2,22,RST*%
%TO.N,unconnected-(U2-Pad22)*%
X168148000Y-81280000D03*
%TO.P,U2,23,GND*%
%TO.N,GND*%
X170688000Y-81280000D03*
%TO.P,U2,24,RAW*%
%TO.N,VCC*%
X173228000Y-81280000D03*
%TD*%
D13*
%TO.P,U3,25,VDD*%
%TO.N,GND*%
X110998000Y-104140000D03*
X149098000Y-121920000D03*
X133858000Y-121920000D03*
X156718000Y-121920000D03*
X136398000Y-121920000D03*
X159258000Y-121920000D03*
X151638000Y-121920000D03*
X123698000Y-121920000D03*
X164338000Y-121920000D03*
X128778000Y-121920000D03*
X161798000Y-121920000D03*
X144018000Y-121920000D03*
X116078000Y-121920000D03*
X146558000Y-121920000D03*
X141478000Y-101600000D03*
X118618000Y-121920000D03*
X131318000Y-121920000D03*
X121158000Y-121920000D03*
D12*
%TO.P,U3,24,SDA*%
%TO.N,/SERVO_SDA*%
X110998000Y-111760000D03*
%TO.P,U3,23,SCL*%
%TO.N,/SERVO_SCL*%
X110998000Y-109220000D03*
%TO.P,U3,20,~{OE}*%
%TO.N,unconnected-(U3-Pad20)*%
X110998000Y-106680000D03*
%TO.P,U3,19,LED15*%
%TO.N,/EXP_MOTOR_10*%
X164338000Y-116840000D03*
%TO.P,U3,18,LED14*%
%TO.N,/EXP_MOTOR_9*%
X161798000Y-116840000D03*
%TO.P,U3,17,LED13*%
%TO.N,/EXP_MOTOR_8*%
X159258000Y-116840000D03*
%TO.P,U3,16,LED12*%
%TO.N,/EXP_MOTOR_7*%
X156718000Y-116840000D03*
%TO.P,U3,15,LED11*%
%TO.N,/EXP_MOTOR_6*%
X151638000Y-116840000D03*
%TO.P,U3,14,LED10*%
%TO.N,/EXP_MOTOR_5*%
X149098000Y-116840000D03*
%TO.P,U3,13,LED9*%
%TO.N,/EXP_MOTOR_4*%
X146558000Y-116840000D03*
%TO.P,U3,12,LED8*%
%TO.N,/EXP_MOTOR_3*%
X144018000Y-116840000D03*
%TO.P,U3,11,VSS*%
%TO.N,VCC*%
X110998000Y-114300000D03*
X161798000Y-119380000D03*
X133858000Y-119380000D03*
X156718000Y-119380000D03*
X118618000Y-119380000D03*
X110998000Y-116840000D03*
X128778000Y-119380000D03*
X138938000Y-101600000D03*
X151638000Y-119380000D03*
X136398000Y-119380000D03*
X149098000Y-119380000D03*
X164338000Y-119380000D03*
X123698000Y-119380000D03*
X159258000Y-119380000D03*
X116078000Y-119380000D03*
X131318000Y-119380000D03*
X121158000Y-119380000D03*
X144018000Y-119380000D03*
X146558000Y-119380000D03*
%TO.P,U3,10,LED7*%
%TO.N,/EXP_MOTOR_2*%
X136398000Y-116840000D03*
%TO.P,U3,9,LED6*%
%TO.N,/EXP_MOTOR_1*%
X133858000Y-116840000D03*
%TO.P,U3,8,LED5*%
%TO.N,/EYE_V_MOTOR*%
X131318000Y-116840000D03*
%TO.P,U3,7,LED4*%
%TO.N,/EYE_H_MOTOR*%
X128778000Y-116840000D03*
%TO.P,U3,6,LED3*%
%TO.N,/NODMOTOR*%
X123698000Y-116840000D03*
%TO.P,U3,5,LED2*%
%TO.N,/TILTMOTOR*%
X121158000Y-116840000D03*
%TO.P,U3,4,LED1*%
%TO.N,/PANMOTOR*%
X118618000Y-116840000D03*
%TO.P,U3,3,LED0*%
%TO.N,/JAWMOTOR*%
X116078000Y-116840000D03*
%TD*%
%TO.P,U1,1,RO*%
%TO.N,/485RO*%
X134620000Y-113030000D03*
%TO.P,U1,2,~{RE}*%
%TO.N,GND*%
X134620000Y-110490000D03*
%TO.P,U1,3,DE*%
X134620000Y-107950000D03*
%TO.P,U1,4,DI*%
%TO.N,unconnected-(U1-Pad4)*%
X134620000Y-105410000D03*
D13*
%TO.P,U1,5,GND*%
%TO.N,GND*%
X175260000Y-105410000D03*
D12*
%TO.P,U1,6,A*%
%TO.N,Net-(J1-Pad3)*%
X175260000Y-107950000D03*
%TO.P,U1,7,B*%
%TO.N,Net-(J1-Pad2)*%
X175260000Y-110490000D03*
%TO.P,U1,8,VCC*%
%TO.N,VCC*%
X175260000Y-113030000D03*
%TD*%
D14*
%TO.P,SW1,1*%
%TO.N,GND*%
X122189000Y-95748000D03*
D15*
%TO.P,SW1,2*%
X124729000Y-95748000D03*
%TO.P,SW1,3*%
X127269000Y-95748000D03*
%TO.P,SW1,4*%
X129809000Y-95748000D03*
%TO.P,SW1,5*%
X132349000Y-95748000D03*
%TO.P,SW1,6*%
X134889000Y-95748000D03*
%TO.P,SW1,7*%
X137429000Y-95748000D03*
%TO.P,SW1,8*%
X139969000Y-95748000D03*
%TO.P,SW1,9*%
%TO.N,/ADDR_8*%
X139969000Y-88128000D03*
%TO.P,SW1,10*%
%TO.N,/ADDR_7*%
X137429000Y-88128000D03*
%TO.P,SW1,11*%
%TO.N,/ADDR_6*%
X134889000Y-88128000D03*
%TO.P,SW1,12*%
%TO.N,/ADDR_5*%
X132349000Y-88128000D03*
%TO.P,SW1,13*%
%TO.N,/ADDR_4*%
X129809000Y-88128000D03*
%TO.P,SW1,14*%
%TO.N,/ADDR_3*%
X127269000Y-88128000D03*
%TO.P,SW1,15*%
%TO.N,/ADDR_2*%
X124729000Y-88128000D03*
%TO.P,SW1,16*%
%TO.N,/ADDR_1*%
X122189000Y-88128000D03*
%TD*%
D16*
%TO.P,R3,2*%
%TO.N,/EYE_R*%
X139700000Y-85344000D03*
D17*
%TO.P,R3,1*%
%TO.N,Net-(D1-Pad3)*%
X139700000Y-80264000D03*
%TD*%
%TO.P,R2,1*%
%TO.N,Net-(D1-Pad2)*%
X137033000Y-80264000D03*
D16*
%TO.P,R2,2*%
%TO.N,/EYE_G*%
X137033000Y-85344000D03*
%TD*%
D17*
%TO.P,R1,1*%
%TO.N,Net-(D1-Pad1)*%
X134620000Y-80264000D03*
D16*
%TO.P,R1,2*%
%TO.N,/EYE_B*%
X134620000Y-85344000D03*
%TD*%
D18*
%TO.P,J4,1,Pin_1*%
%TO.N,GND*%
X110744000Y-80315000D03*
D19*
%TO.P,J4,2,Pin_2*%
%TO.N,VCC*%
X115744000Y-80315000D03*
%TD*%
D20*
%TO.N,Net-(J1-Pad2)*%
X160020000Y-103632000D03*
X149860000Y-103632000D03*
%TD*%
D21*
%TO.N,Net-(J3-Pad3)*%
X126238000Y-76765000D02*
X131261000Y-81788000D01*
X131261000Y-81788000D02*
X140716000Y-81788000D01*
X140716000Y-81788000D02*
X143256000Y-79248000D01*
X143256000Y-79248000D02*
X148336000Y-79248000D01*
X148336000Y-79248000D02*
X150368000Y-81280000D01*
%TO.N,Net-(D1-Pad3)*%
X140472000Y-76835000D02*
X139700000Y-79949991D01*
%TO.N,Net-(D1-Pad2)*%
X137932000Y-76835000D02*
X137033000Y-79949991D01*
%TO.N,Net-(D1-Pad1)*%
X135392000Y-76835000D02*
X134493000Y-79375000D01*
X134493000Y-79375000D02*
X134620000Y-79502000D01*
X134620000Y-79502000D02*
X134620000Y-79949991D01*
%TO.N,/485RO*%
X170688000Y-96520000D02*
X176854511Y-102686511D01*
X176854511Y-102686511D02*
X176854511Y-115245489D01*
X176854511Y-115245489D02*
X176784000Y-115316000D01*
X176784000Y-115316000D02*
X136906000Y-115316000D01*
X136906000Y-115316000D02*
X134620000Y-113030000D01*
%TO.N,/SERVO_SCL*%
X160528000Y-96520000D02*
X147828000Y-109220000D01*
X147828000Y-109220000D02*
X110998000Y-109220000D01*
%TO.N,/SERVO_SDA*%
X163068000Y-96520000D02*
X147828000Y-111760000D01*
X147828000Y-111760000D02*
X110998000Y-111760000D01*
%TO.N,Net-(J1-Pad3)*%
X109728000Y-88900000D02*
X118884031Y-98056031D01*
X118884031Y-98056031D02*
X157988529Y-98056031D01*
X157988529Y-98056031D02*
X159074511Y-96970049D01*
X159074511Y-96970049D02*
X159074511Y-96436929D01*
X174371000Y-107315000D02*
X175260000Y-107950000D01*
X159074511Y-96436929D02*
X160077951Y-95433489D01*
X160077951Y-95433489D02*
X163518049Y-95433489D01*
X163518049Y-95433489D02*
X164154511Y-96069951D01*
X164154511Y-96069951D02*
X164154511Y-97098511D01*
X164154511Y-97098511D02*
X174371000Y-107315000D01*
%TO.N,Net-(J1-Pad2)*%
X160020000Y-103632000D02*
X166243000Y-109855000D01*
X166243000Y-109855000D02*
X175260000Y-110490000D01*
X121920000Y-103632000D02*
X149860000Y-103632000D01*
X109728000Y-91440000D02*
X121920000Y-103632000D01*
%TO.N,/ADDR_2*%
X124729000Y-88128000D02*
X125853511Y-87003489D01*
X125853511Y-87003489D02*
X128025767Y-87003489D01*
X128025767Y-87003489D02*
X128684489Y-87662211D01*
X128684489Y-87662211D02*
X128684489Y-88593789D01*
X128684489Y-88593789D02*
X131141291Y-91050591D01*
X131141291Y-91050591D02*
X144898591Y-91050591D01*
X144898591Y-91050591D02*
X150368000Y-96520000D01*
%TO.N,/ADDR_3*%
X127269000Y-88128000D02*
X133179480Y-94038480D01*
X133179480Y-94038480D02*
X142806480Y-94038480D01*
X142806480Y-94038480D02*
X145288000Y-96520000D01*
%TO.N,/ADDR_4*%
X129809000Y-88128000D02*
X132282071Y-90601071D01*
X132282071Y-90601071D02*
X153746929Y-90601071D01*
X153746929Y-90601071D02*
X163068000Y-81280000D01*
%TO.N,/ADDR_5*%
X132349000Y-88128000D02*
X134372551Y-90151551D01*
X134372551Y-90151551D02*
X151656449Y-90151551D01*
X151656449Y-90151551D02*
X160528000Y-81280000D01*
%TO.N,/ADDR_6*%
X134889000Y-88128000D02*
X136463031Y-89702031D01*
X149565969Y-89702031D02*
X157988000Y-81280000D01*
X136463031Y-89702031D02*
X149565969Y-89702031D01*
%TO.N,/ADDR_7*%
X137429000Y-88128000D02*
X138553511Y-89252511D01*
X138553511Y-89252511D02*
X147475489Y-89252511D01*
X147475489Y-89252511D02*
X155448000Y-81280000D01*
%TO.N,/ADDR_8*%
X139969000Y-88128000D02*
X142516560Y-88128000D01*
X142516560Y-88128000D02*
X148914511Y-81730049D01*
X148914511Y-81730049D02*
X148914511Y-80829951D01*
X148914511Y-80829951D02*
X147840560Y-79756000D01*
X147840560Y-79756000D02*
X146812000Y-79756000D01*
X146812000Y-79756000D02*
X145288000Y-81280000D01*
%TO.N,Net-(J3-Pad2)*%
X130245000Y-83312000D02*
X130556000Y-83312000D01*
X130564511Y-83303489D02*
X145804511Y-83303489D01*
X123698000Y-76765000D02*
X130245000Y-83312000D01*
X130556000Y-83312000D02*
X130564511Y-83303489D01*
X145804511Y-83303489D02*
X147828000Y-81280000D01*
%TO.N,Net-(J3-Pad4)*%
X128778000Y-76765000D02*
X129952511Y-75590489D01*
X129952511Y-75590489D02*
X147218489Y-75590489D01*
X147218489Y-75590489D02*
X152908000Y-81280000D01*
%TO.N,/ADDR_1*%
X122189000Y-93741000D02*
X122936000Y-94488000D01*
X122189000Y-88128000D02*
X122189000Y-93741000D01*
X122936000Y-94488000D02*
X141719440Y-94488000D01*
X141719440Y-94488000D02*
X144837951Y-97606511D01*
X144837951Y-97606511D02*
X156901489Y-97606511D01*
X156901489Y-97606511D02*
X157988000Y-96520000D01*
%TD*%
M02*
