M48
; DRILL file {KiCad 6.0.2+dfsg-1} date Tue 06 Sep 2022 05:18:31 PM EDT
; FORMAT={-:-/ absolute / inch / decimal}
; #@! TF.CreationDate,2022-09-06T17:18:31-04:00
; #@! TF.GenerationSoftware,Kicad,Pcbnew,6.0.2+dfsg-1
; #@! TF.FileFunction,Plated,1,2,PTH
FMAT,2
INCH
; #@! TA.AperFunction,Plated,PTH,ViaDrill
T1C0.0157
; #@! TA.AperFunction,Plated,PTH,ComponentDrill
T2C0.0276
; #@! TA.AperFunction,Plated,PTH,ComponentDrill
T3C0.0300
; #@! TA.AperFunction,Plated,PTH,ComponentDrill
T4C0.0315
; #@! TA.AperFunction,Plated,PTH,ComponentDrill
T5C0.0394
; #@! TA.AperFunction,Plated,PTH,ComponentDrill
T6C0.0512
%
G90
G05
T1
X5.9Y-4.08
X6.3Y-4.08
T2
X5.3Y-3.16
X5.3Y-3.36
X5.395Y-3.16
X5.395Y-3.36
X5.5Y-3.16
X5.5Y-3.36
T3
X4.37Y-4.1
X4.37Y-4.2
X4.37Y-4.3
X4.37Y-4.4
X4.37Y-4.5
X4.37Y-4.6
X4.57Y-4.6
X4.57Y-4.7
X4.57Y-4.8
X4.67Y-4.6
X4.67Y-4.7
X4.67Y-4.8
X4.77Y-4.6
X4.77Y-4.7
X4.77Y-4.8
X4.87Y-4.6
X4.87Y-4.7
X4.87Y-4.8
X5.07Y-4.6
X5.07Y-4.7
X5.07Y-4.8
X5.17Y-4.6
X5.17Y-4.7
X5.17Y-4.8
X5.27Y-4.6
X5.27Y-4.7
X5.27Y-4.8
X5.3Y-4.15
X5.3Y-4.25
X5.3Y-4.35
X5.3Y-4.45
X5.37Y-4.6
X5.37Y-4.7
X5.37Y-4.8
X5.47Y-4.0
X5.57Y-4.0
X5.67Y-4.6
X5.67Y-4.7
X5.67Y-4.8
X5.72Y-3.2
X5.72Y-3.8
X5.77Y-4.6
X5.77Y-4.7
X5.77Y-4.8
X5.82Y-3.2
X5.82Y-3.8
X5.87Y-4.6
X5.87Y-4.7
X5.87Y-4.8
X5.92Y-3.2
X5.92Y-3.8
X5.97Y-4.6
X5.97Y-4.7
X5.97Y-4.8
X6.02Y-3.2
X6.02Y-3.8
X6.12Y-3.2
X6.12Y-3.8
X6.17Y-4.6
X6.17Y-4.7
X6.17Y-4.8
X6.22Y-3.2
X6.22Y-3.8
X6.27Y-4.6
X6.27Y-4.7
X6.27Y-4.8
X6.32Y-3.2
X6.32Y-3.8
X6.37Y-4.6
X6.37Y-4.7
X6.37Y-4.8
X6.42Y-3.2
X6.42Y-3.8
X6.47Y-4.6
X6.47Y-4.7
X6.47Y-4.8
X6.52Y-3.2
X6.52Y-3.8
X6.62Y-3.2
X6.62Y-3.8
X6.72Y-3.2
X6.72Y-3.8
X6.82Y-3.2
X6.82Y-3.8
X6.9Y-4.15
X6.9Y-4.25
X6.9Y-4.35
X6.9Y-4.45
T4
X4.8106Y-3.4696
X4.8106Y-3.7696
X4.9106Y-3.4696
X4.9106Y-3.7696
X5.0106Y-3.4696
X5.0106Y-3.7696
X5.1106Y-3.4696
X5.1106Y-3.7696
X5.2106Y-3.4696
X5.2106Y-3.7696
X5.3106Y-3.4696
X5.3106Y-3.7696
X5.4106Y-3.4696
X5.4106Y-3.7696
X5.5106Y-3.4696
X5.5106Y-3.7696
T5
X4.32Y-3.5
X4.32Y-3.6
X4.32Y-3.7
X4.77Y-3.0222
X4.87Y-3.0222
X4.97Y-3.0222
X5.07Y-3.0222
X5.17Y-3.0222
X5.3304Y-3.025
X5.4304Y-3.025
X5.5304Y-3.025
X5.6304Y-3.025
T6
X4.36Y-3.162
X4.5569Y-3.162
T0
M30
