%TF.GenerationSoftware,KiCad,Pcbnew,6.0.2+dfsg-1*%
%TF.CreationDate,2022-09-06T17:18:22-04:00*%
%TF.ProjectId,main-skulls,6d61696e-2d73-46b7-956c-6c732e6b6963,rev?*%
%TF.SameCoordinates,Original*%
%TF.FileFunction,Legend,Top*%
%TF.FilePolarity,Positive*%
%FSLAX46Y46*%
G04 Gerber Fmt 4.6, Leading zero omitted, Abs format (unit mm)*
G04 Created by KiCad (PCBNEW 6.0.2+dfsg-1) date 2022-09-06 17:18:22*
%MOMM*%
%LPD*%
G01*
G04 APERTURE LIST*
%ADD10C,0.150000*%
%ADD11C,0.300000*%
%ADD12C,0.120000*%
G04 APERTURE END LIST*
D10*
X119324380Y-96328952D02*
X118324380Y-96328952D01*
X118324380Y-96090857D01*
X118372000Y-95948000D01*
X118467238Y-95852761D01*
X118562476Y-95805142D01*
X118752952Y-95757523D01*
X118895809Y-95757523D01*
X119086285Y-95805142D01*
X119181523Y-95852761D01*
X119276761Y-95948000D01*
X119324380Y-96090857D01*
X119324380Y-96328952D01*
X119324380Y-95328952D02*
X118324380Y-95328952D01*
X119038666Y-94995619D01*
X118324380Y-94662285D01*
X119324380Y-94662285D01*
X118324380Y-94281333D02*
X119324380Y-93614666D01*
X118324380Y-93614666D02*
X119324380Y-94281333D01*
X118324380Y-92281333D02*
X118324380Y-92090857D01*
X118372000Y-91995619D01*
X118467238Y-91900380D01*
X118657714Y-91852761D01*
X118991047Y-91852761D01*
X119181523Y-91900380D01*
X119276761Y-91995619D01*
X119324380Y-92090857D01*
X119324380Y-92281333D01*
X119276761Y-92376571D01*
X119181523Y-92471809D01*
X118991047Y-92519428D01*
X118657714Y-92519428D01*
X118467238Y-92471809D01*
X118372000Y-92376571D01*
X118324380Y-92281333D01*
X118800571Y-91090857D02*
X118800571Y-91424190D01*
X119324380Y-91424190D02*
X118324380Y-91424190D01*
X118324380Y-90948000D01*
X118800571Y-90233714D02*
X118800571Y-90567047D01*
X119324380Y-90567047D02*
X118324380Y-90567047D01*
X118324380Y-90090857D01*
X119276761Y-89757523D02*
X119324380Y-89614666D01*
X119324380Y-89376571D01*
X119276761Y-89281333D01*
X119229142Y-89233714D01*
X119133904Y-89186095D01*
X119038666Y-89186095D01*
X118943428Y-89233714D01*
X118895809Y-89281333D01*
X118848190Y-89376571D01*
X118800571Y-89567047D01*
X118752952Y-89662285D01*
X118705333Y-89709904D01*
X118610095Y-89757523D01*
X118514857Y-89757523D01*
X118419619Y-89709904D01*
X118372000Y-89662285D01*
X118324380Y-89567047D01*
X118324380Y-89328952D01*
X118372000Y-89186095D01*
X118800571Y-88757523D02*
X118800571Y-88424190D01*
X119324380Y-88281333D02*
X119324380Y-88757523D01*
X118324380Y-88757523D01*
X118324380Y-88281333D01*
X118324380Y-87995619D02*
X118324380Y-87424190D01*
X119324380Y-87709904D02*
X118324380Y-87709904D01*
X149868761Y-76144380D02*
X150059238Y-76144380D01*
X150154476Y-76096761D01*
X150202095Y-76049142D01*
X150297333Y-75906285D01*
X150344952Y-75715809D01*
X150344952Y-75334857D01*
X150297333Y-75239619D01*
X150249714Y-75192000D01*
X150154476Y-75144380D01*
X149964000Y-75144380D01*
X149868761Y-75192000D01*
X149821142Y-75239619D01*
X149773523Y-75334857D01*
X149773523Y-75572952D01*
X149821142Y-75668190D01*
X149868761Y-75715809D01*
X149964000Y-75763428D01*
X150154476Y-75763428D01*
X150249714Y-75715809D01*
X150297333Y-75668190D01*
X150344952Y-75572952D01*
X151487809Y-75096761D02*
X150630666Y-76382476D01*
X151773523Y-75239619D02*
X151821142Y-75192000D01*
X151916380Y-75144380D01*
X152154476Y-75144380D01*
X152249714Y-75192000D01*
X152297333Y-75239619D01*
X152344952Y-75334857D01*
X152344952Y-75430095D01*
X152297333Y-75572952D01*
X151725904Y-76144380D01*
X152344952Y-76144380D01*
X152964000Y-75144380D02*
X153059238Y-75144380D01*
X153154476Y-75192000D01*
X153202095Y-75239619D01*
X153249714Y-75334857D01*
X153297333Y-75525333D01*
X153297333Y-75763428D01*
X153249714Y-75953904D01*
X153202095Y-76049142D01*
X153154476Y-76096761D01*
X153059238Y-76144380D01*
X152964000Y-76144380D01*
X152868761Y-76096761D01*
X152821142Y-76049142D01*
X152773523Y-75953904D01*
X152725904Y-75763428D01*
X152725904Y-75525333D01*
X152773523Y-75334857D01*
X152821142Y-75239619D01*
X152868761Y-75192000D01*
X152964000Y-75144380D01*
X153678285Y-75239619D02*
X153725904Y-75192000D01*
X153821142Y-75144380D01*
X154059238Y-75144380D01*
X154154476Y-75192000D01*
X154202095Y-75239619D01*
X154249714Y-75334857D01*
X154249714Y-75430095D01*
X154202095Y-75572952D01*
X153630666Y-76144380D01*
X154249714Y-76144380D01*
X154630666Y-75239619D02*
X154678285Y-75192000D01*
X154773523Y-75144380D01*
X155011619Y-75144380D01*
X155106857Y-75192000D01*
X155154476Y-75239619D01*
X155202095Y-75334857D01*
X155202095Y-75430095D01*
X155154476Y-75572952D01*
X154583047Y-76144380D01*
X155202095Y-76144380D01*
X156392571Y-76144380D02*
X156392571Y-75144380D01*
X156964000Y-76144380D02*
X156535428Y-75572952D01*
X156964000Y-75144380D02*
X156392571Y-75715809D01*
X157773523Y-76096761D02*
X157678285Y-76144380D01*
X157487809Y-76144380D01*
X157392571Y-76096761D01*
X157344952Y-76001523D01*
X157344952Y-75620571D01*
X157392571Y-75525333D01*
X157487809Y-75477714D01*
X157678285Y-75477714D01*
X157773523Y-75525333D01*
X157821142Y-75620571D01*
X157821142Y-75715809D01*
X157344952Y-75811047D01*
X158249714Y-75477714D02*
X158249714Y-76144380D01*
X158249714Y-75572952D02*
X158297333Y-75525333D01*
X158392571Y-75477714D01*
X158535428Y-75477714D01*
X158630666Y-75525333D01*
X158678285Y-75620571D01*
X158678285Y-76144380D01*
X159916380Y-76144380D02*
X159916380Y-75144380D01*
X160487809Y-76144380D02*
X160059238Y-75572952D01*
X160487809Y-75144380D02*
X159916380Y-75715809D01*
X161059238Y-76144380D02*
X160964000Y-76096761D01*
X160916380Y-76049142D01*
X160868761Y-75953904D01*
X160868761Y-75668190D01*
X160916380Y-75572952D01*
X160964000Y-75525333D01*
X161059238Y-75477714D01*
X161202095Y-75477714D01*
X161297333Y-75525333D01*
X161344952Y-75572952D01*
X161392571Y-75668190D01*
X161392571Y-75953904D01*
X161344952Y-76049142D01*
X161297333Y-76096761D01*
X161202095Y-76144380D01*
X161059238Y-76144380D01*
X162249714Y-76096761D02*
X162154476Y-76144380D01*
X161964000Y-76144380D01*
X161868761Y-76096761D01*
X161821142Y-76049142D01*
X161773523Y-75953904D01*
X161773523Y-75668190D01*
X161821142Y-75572952D01*
X161868761Y-75525333D01*
X161964000Y-75477714D01*
X162154476Y-75477714D01*
X162249714Y-75525333D01*
X162678285Y-76144380D02*
X162678285Y-75144380D01*
X163106857Y-76144380D02*
X163106857Y-75620571D01*
X163059238Y-75525333D01*
X162964000Y-75477714D01*
X162821142Y-75477714D01*
X162725904Y-75525333D01*
X162678285Y-75572952D01*
X151155047Y-78128761D02*
X151297904Y-78176380D01*
X151536000Y-78176380D01*
X151631238Y-78128761D01*
X151678857Y-78081142D01*
X151726476Y-77985904D01*
X151726476Y-77890666D01*
X151678857Y-77795428D01*
X151631238Y-77747809D01*
X151536000Y-77700190D01*
X151345523Y-77652571D01*
X151250285Y-77604952D01*
X151202666Y-77557333D01*
X151155047Y-77462095D01*
X151155047Y-77366857D01*
X151202666Y-77271619D01*
X151250285Y-77224000D01*
X151345523Y-77176380D01*
X151583619Y-77176380D01*
X151726476Y-77224000D01*
X152155047Y-78176380D02*
X152155047Y-77176380D01*
X152250285Y-77795428D02*
X152536000Y-78176380D01*
X152536000Y-77509714D02*
X152155047Y-77890666D01*
X153345523Y-78128761D02*
X153250285Y-78176380D01*
X153059809Y-78176380D01*
X152964571Y-78128761D01*
X152916952Y-78033523D01*
X152916952Y-77652571D01*
X152964571Y-77557333D01*
X153059809Y-77509714D01*
X153250285Y-77509714D01*
X153345523Y-77557333D01*
X153393142Y-77652571D01*
X153393142Y-77747809D01*
X152916952Y-77843047D01*
X153964571Y-78176380D02*
X153869333Y-78128761D01*
X153821714Y-78033523D01*
X153821714Y-77176380D01*
X154726476Y-78128761D02*
X154631238Y-78176380D01*
X154440761Y-78176380D01*
X154345523Y-78128761D01*
X154297904Y-78033523D01*
X154297904Y-77652571D01*
X154345523Y-77557333D01*
X154440761Y-77509714D01*
X154631238Y-77509714D01*
X154726476Y-77557333D01*
X154774095Y-77652571D01*
X154774095Y-77747809D01*
X154297904Y-77843047D01*
X155059809Y-77509714D02*
X155440761Y-77509714D01*
X155202666Y-77176380D02*
X155202666Y-78033523D01*
X155250285Y-78128761D01*
X155345523Y-78176380D01*
X155440761Y-78176380D01*
X155916952Y-78176380D02*
X155821714Y-78128761D01*
X155774095Y-78081142D01*
X155726476Y-77985904D01*
X155726476Y-77700190D01*
X155774095Y-77604952D01*
X155821714Y-77557333D01*
X155916952Y-77509714D01*
X156059809Y-77509714D01*
X156155047Y-77557333D01*
X156202666Y-77604952D01*
X156250285Y-77700190D01*
X156250285Y-77985904D01*
X156202666Y-78081142D01*
X156155047Y-78128761D01*
X156059809Y-78176380D01*
X155916952Y-78176380D01*
X156678857Y-77509714D02*
X156678857Y-78176380D01*
X156678857Y-77604952D02*
X156726476Y-77557333D01*
X156821714Y-77509714D01*
X156964571Y-77509714D01*
X157059809Y-77557333D01*
X157107428Y-77652571D01*
X157107428Y-78176380D01*
X158916952Y-78081142D02*
X158869333Y-78128761D01*
X158726476Y-78176380D01*
X158631238Y-78176380D01*
X158488380Y-78128761D01*
X158393142Y-78033523D01*
X158345523Y-77938285D01*
X158297904Y-77747809D01*
X158297904Y-77604952D01*
X158345523Y-77414476D01*
X158393142Y-77319238D01*
X158488380Y-77224000D01*
X158631238Y-77176380D01*
X158726476Y-77176380D01*
X158869333Y-77224000D01*
X158916952Y-77271619D01*
X159488380Y-78176380D02*
X159393142Y-78128761D01*
X159345523Y-78081142D01*
X159297904Y-77985904D01*
X159297904Y-77700190D01*
X159345523Y-77604952D01*
X159393142Y-77557333D01*
X159488380Y-77509714D01*
X159631238Y-77509714D01*
X159726476Y-77557333D01*
X159774095Y-77604952D01*
X159821714Y-77700190D01*
X159821714Y-77985904D01*
X159774095Y-78081142D01*
X159726476Y-78128761D01*
X159631238Y-78176380D01*
X159488380Y-78176380D01*
X160250285Y-77509714D02*
X160250285Y-78176380D01*
X160250285Y-77604952D02*
X160297904Y-77557333D01*
X160393142Y-77509714D01*
X160536000Y-77509714D01*
X160631238Y-77557333D01*
X160678857Y-77652571D01*
X160678857Y-78176380D01*
X161012190Y-77509714D02*
X161393142Y-77509714D01*
X161155047Y-77176380D02*
X161155047Y-78033523D01*
X161202666Y-78128761D01*
X161297904Y-78176380D01*
X161393142Y-78176380D01*
X161726476Y-78176380D02*
X161726476Y-77509714D01*
X161726476Y-77700190D02*
X161774095Y-77604952D01*
X161821714Y-77557333D01*
X161916952Y-77509714D01*
X162012190Y-77509714D01*
X162488380Y-78176380D02*
X162393142Y-78128761D01*
X162345523Y-78081142D01*
X162297904Y-77985904D01*
X162297904Y-77700190D01*
X162345523Y-77604952D01*
X162393142Y-77557333D01*
X162488380Y-77509714D01*
X162631238Y-77509714D01*
X162726476Y-77557333D01*
X162774095Y-77604952D01*
X162821714Y-77700190D01*
X162821714Y-77985904D01*
X162774095Y-78081142D01*
X162726476Y-78128761D01*
X162631238Y-78176380D01*
X162488380Y-78176380D01*
X163393142Y-78176380D02*
X163297904Y-78128761D01*
X163250285Y-78033523D01*
X163250285Y-77176380D01*
X164869333Y-77652571D02*
X165012190Y-77700190D01*
X165059809Y-77747809D01*
X165107428Y-77843047D01*
X165107428Y-77985904D01*
X165059809Y-78081142D01*
X165012190Y-78128761D01*
X164916952Y-78176380D01*
X164536000Y-78176380D01*
X164536000Y-77176380D01*
X164869333Y-77176380D01*
X164964571Y-77224000D01*
X165012190Y-77271619D01*
X165059809Y-77366857D01*
X165059809Y-77462095D01*
X165012190Y-77557333D01*
X164964571Y-77604952D01*
X164869333Y-77652571D01*
X164536000Y-77652571D01*
X165678857Y-78176380D02*
X165583619Y-78128761D01*
X165536000Y-78081142D01*
X165488380Y-77985904D01*
X165488380Y-77700190D01*
X165536000Y-77604952D01*
X165583619Y-77557333D01*
X165678857Y-77509714D01*
X165821714Y-77509714D01*
X165916952Y-77557333D01*
X165964571Y-77604952D01*
X166012190Y-77700190D01*
X166012190Y-77985904D01*
X165964571Y-78081142D01*
X165916952Y-78128761D01*
X165821714Y-78176380D01*
X165678857Y-78176380D01*
X166869333Y-78176380D02*
X166869333Y-77652571D01*
X166821714Y-77557333D01*
X166726476Y-77509714D01*
X166536000Y-77509714D01*
X166440761Y-77557333D01*
X166869333Y-78128761D02*
X166774095Y-78176380D01*
X166536000Y-78176380D01*
X166440761Y-78128761D01*
X166393142Y-78033523D01*
X166393142Y-77938285D01*
X166440761Y-77843047D01*
X166536000Y-77795428D01*
X166774095Y-77795428D01*
X166869333Y-77747809D01*
X167345523Y-78176380D02*
X167345523Y-77509714D01*
X167345523Y-77700190D02*
X167393142Y-77604952D01*
X167440761Y-77557333D01*
X167536000Y-77509714D01*
X167631238Y-77509714D01*
X168393142Y-78176380D02*
X168393142Y-77176380D01*
X168393142Y-78128761D02*
X168297904Y-78176380D01*
X168107428Y-78176380D01*
X168012190Y-78128761D01*
X167964571Y-78081142D01*
X167916952Y-77985904D01*
X167916952Y-77700190D01*
X167964571Y-77604952D01*
X168012190Y-77557333D01*
X168107428Y-77509714D01*
X168297904Y-77509714D01*
X168393142Y-77557333D01*
X169536000Y-77509714D02*
X169774095Y-78176380D01*
X170012190Y-77509714D01*
X170916952Y-78176380D02*
X170345523Y-78176380D01*
X170631238Y-78176380D02*
X170631238Y-77176380D01*
X170536000Y-77319238D01*
X170440761Y-77414476D01*
X170345523Y-77462095D01*
D11*
X146595142Y-101770571D02*
X145738000Y-101770571D01*
X146166571Y-101770571D02*
X146166571Y-100270571D01*
X146023714Y-100484857D01*
X145880857Y-100627714D01*
X145738000Y-100699142D01*
X147880857Y-100270571D02*
X147595142Y-100270571D01*
X147452285Y-100342000D01*
X147380857Y-100413428D01*
X147238000Y-100627714D01*
X147166571Y-100913428D01*
X147166571Y-101484857D01*
X147238000Y-101627714D01*
X147309428Y-101699142D01*
X147452285Y-101770571D01*
X147738000Y-101770571D01*
X147880857Y-101699142D01*
X147952285Y-101627714D01*
X148023714Y-101484857D01*
X148023714Y-101127714D01*
X147952285Y-100984857D01*
X147880857Y-100913428D01*
X147738000Y-100842000D01*
X147452285Y-100842000D01*
X147309428Y-100913428D01*
X147238000Y-100984857D01*
X147166571Y-101127714D01*
X149309428Y-101699142D02*
X149166571Y-101770571D01*
X148880857Y-101770571D01*
X148738000Y-101699142D01*
X148666571Y-101627714D01*
X148595142Y-101484857D01*
X148595142Y-101056285D01*
X148666571Y-100913428D01*
X148738000Y-100842000D01*
X148880857Y-100770571D01*
X149166571Y-100770571D01*
X149309428Y-100842000D01*
X149952285Y-101770571D02*
X149952285Y-100270571D01*
X150595142Y-101770571D02*
X150595142Y-100984857D01*
X150523714Y-100842000D01*
X150380857Y-100770571D01*
X150166571Y-100770571D01*
X150023714Y-100842000D01*
X149952285Y-100913428D01*
X152380857Y-101699142D02*
X152595142Y-101770571D01*
X152952285Y-101770571D01*
X153095142Y-101699142D01*
X153166571Y-101627714D01*
X153238000Y-101484857D01*
X153238000Y-101342000D01*
X153166571Y-101199142D01*
X153095142Y-101127714D01*
X152952285Y-101056285D01*
X152666571Y-100984857D01*
X152523714Y-100913428D01*
X152452285Y-100842000D01*
X152380857Y-100699142D01*
X152380857Y-100556285D01*
X152452285Y-100413428D01*
X152523714Y-100342000D01*
X152666571Y-100270571D01*
X153023714Y-100270571D01*
X153238000Y-100342000D01*
X154452285Y-101699142D02*
X154309428Y-101770571D01*
X154023714Y-101770571D01*
X153880857Y-101699142D01*
X153809428Y-101556285D01*
X153809428Y-100984857D01*
X153880857Y-100842000D01*
X154023714Y-100770571D01*
X154309428Y-100770571D01*
X154452285Y-100842000D01*
X154523714Y-100984857D01*
X154523714Y-101127714D01*
X153809428Y-101270571D01*
X155166571Y-101770571D02*
X155166571Y-100770571D01*
X155166571Y-101056285D02*
X155238000Y-100913428D01*
X155309428Y-100842000D01*
X155452285Y-100770571D01*
X155595142Y-100770571D01*
X155952285Y-100770571D02*
X156309428Y-101770571D01*
X156666571Y-100770571D01*
X157452285Y-101770571D02*
X157309428Y-101699142D01*
X157238000Y-101627714D01*
X157166571Y-101484857D01*
X157166571Y-101056285D01*
X157238000Y-100913428D01*
X157309428Y-100842000D01*
X157452285Y-100770571D01*
X157666571Y-100770571D01*
X157809428Y-100842000D01*
X157880857Y-100913428D01*
X157952285Y-101056285D01*
X157952285Y-101484857D01*
X157880857Y-101627714D01*
X157809428Y-101699142D01*
X157666571Y-101770571D01*
X157452285Y-101770571D01*
X160595142Y-101627714D02*
X160523714Y-101699142D01*
X160309428Y-101770571D01*
X160166571Y-101770571D01*
X159952285Y-101699142D01*
X159809428Y-101556285D01*
X159738000Y-101413428D01*
X159666571Y-101127714D01*
X159666571Y-100913428D01*
X159738000Y-100627714D01*
X159809428Y-100484857D01*
X159952285Y-100342000D01*
X160166571Y-100270571D01*
X160309428Y-100270571D01*
X160523714Y-100342000D01*
X160595142Y-100413428D01*
X161452285Y-101770571D02*
X161309428Y-101699142D01*
X161238000Y-101627714D01*
X161166571Y-101484857D01*
X161166571Y-101056285D01*
X161238000Y-100913428D01*
X161309428Y-100842000D01*
X161452285Y-100770571D01*
X161666571Y-100770571D01*
X161809428Y-100842000D01*
X161880857Y-100913428D01*
X161952285Y-101056285D01*
X161952285Y-101484857D01*
X161880857Y-101627714D01*
X161809428Y-101699142D01*
X161666571Y-101770571D01*
X161452285Y-101770571D01*
X162595142Y-100770571D02*
X162595142Y-101770571D01*
X162595142Y-100913428D02*
X162666571Y-100842000D01*
X162809428Y-100770571D01*
X163023714Y-100770571D01*
X163166571Y-100842000D01*
X163238000Y-100984857D01*
X163238000Y-101770571D01*
X163738000Y-100770571D02*
X164309428Y-100770571D01*
X163952285Y-100270571D02*
X163952285Y-101556285D01*
X164023714Y-101699142D01*
X164166571Y-101770571D01*
X164309428Y-101770571D01*
X164809428Y-101770571D02*
X164809428Y-100770571D01*
X164809428Y-101056285D02*
X164880857Y-100913428D01*
X164952285Y-100842000D01*
X165095142Y-100770571D01*
X165238000Y-100770571D01*
X165952285Y-101770571D02*
X165809428Y-101699142D01*
X165738000Y-101627714D01*
X165666571Y-101484857D01*
X165666571Y-101056285D01*
X165738000Y-100913428D01*
X165809428Y-100842000D01*
X165952285Y-100770571D01*
X166166571Y-100770571D01*
X166309428Y-100842000D01*
X166380857Y-100913428D01*
X166452285Y-101056285D01*
X166452285Y-101484857D01*
X166380857Y-101627714D01*
X166309428Y-101699142D01*
X166166571Y-101770571D01*
X165952285Y-101770571D01*
X167309428Y-101770571D02*
X167166571Y-101699142D01*
X167095142Y-101556285D01*
X167095142Y-100270571D01*
X168095142Y-101770571D02*
X167952285Y-101699142D01*
X167880857Y-101556285D01*
X167880857Y-100270571D01*
X169238000Y-101699142D02*
X169095142Y-101770571D01*
X168809428Y-101770571D01*
X168666571Y-101699142D01*
X168595142Y-101556285D01*
X168595142Y-100984857D01*
X168666571Y-100842000D01*
X168809428Y-100770571D01*
X169095142Y-100770571D01*
X169238000Y-100842000D01*
X169309428Y-100984857D01*
X169309428Y-101127714D01*
X168595142Y-101270571D01*
X169952285Y-101770571D02*
X169952285Y-100770571D01*
X169952285Y-101056285D02*
X170023714Y-100913428D01*
X170095142Y-100842000D01*
X170238000Y-100770571D01*
X170380857Y-100770571D01*
D10*
X131024380Y-81089333D02*
X132024380Y-80756000D01*
X131024380Y-80422666D01*
X131929142Y-79517904D02*
X131976761Y-79565523D01*
X132024380Y-79708380D01*
X132024380Y-79803619D01*
X131976761Y-79946476D01*
X131881523Y-80041714D01*
X131786285Y-80089333D01*
X131595809Y-80136952D01*
X131452952Y-80136952D01*
X131262476Y-80089333D01*
X131167238Y-80041714D01*
X131072000Y-79946476D01*
X131024380Y-79803619D01*
X131024380Y-79708380D01*
X131072000Y-79565523D01*
X131119619Y-79517904D01*
X131929142Y-78517904D02*
X131976761Y-78565523D01*
X132024380Y-78708380D01*
X132024380Y-78803619D01*
X131976761Y-78946476D01*
X131881523Y-79041714D01*
X131786285Y-79089333D01*
X131595809Y-79136952D01*
X131452952Y-79136952D01*
X131262476Y-79089333D01*
X131167238Y-79041714D01*
X131072000Y-78946476D01*
X131024380Y-78803619D01*
X131024380Y-78708380D01*
X131072000Y-78565523D01*
X131119619Y-78517904D01*
X129484380Y-80970285D02*
X128484380Y-80970285D01*
X128484380Y-80732190D01*
X128532000Y-80589333D01*
X128627238Y-80494095D01*
X128722476Y-80446476D01*
X128912952Y-80398857D01*
X129055809Y-80398857D01*
X129246285Y-80446476D01*
X129341523Y-80494095D01*
X129436761Y-80589333D01*
X129484380Y-80732190D01*
X129484380Y-80970285D01*
X129484380Y-79446476D02*
X129484380Y-80017904D01*
X129484380Y-79732190D02*
X128484380Y-79732190D01*
X128627238Y-79827428D01*
X128722476Y-79922666D01*
X128770095Y-80017904D01*
X128484380Y-78589333D02*
X128484380Y-78779809D01*
X128532000Y-78875047D01*
X128579619Y-78922666D01*
X128722476Y-79017904D01*
X128912952Y-79065523D01*
X129293904Y-79065523D01*
X129389142Y-79017904D01*
X129436761Y-78970285D01*
X129484380Y-78875047D01*
X129484380Y-78684571D01*
X129436761Y-78589333D01*
X129389142Y-78541714D01*
X129293904Y-78494095D01*
X129055809Y-78494095D01*
X128960571Y-78541714D01*
X128912952Y-78589333D01*
X128865333Y-78684571D01*
X128865333Y-78875047D01*
X128912952Y-78970285D01*
X128960571Y-79017904D01*
X129055809Y-79065523D01*
X126944380Y-80970285D02*
X125944380Y-80970285D01*
X125944380Y-80732190D01*
X125992000Y-80589333D01*
X126087238Y-80494095D01*
X126182476Y-80446476D01*
X126372952Y-80398857D01*
X126515809Y-80398857D01*
X126706285Y-80446476D01*
X126801523Y-80494095D01*
X126896761Y-80589333D01*
X126944380Y-80732190D01*
X126944380Y-80970285D01*
X126944380Y-79446476D02*
X126944380Y-80017904D01*
X126944380Y-79732190D02*
X125944380Y-79732190D01*
X126087238Y-79827428D01*
X126182476Y-79922666D01*
X126230095Y-80017904D01*
X126277714Y-78589333D02*
X126944380Y-78589333D01*
X125896761Y-78827428D02*
X126611047Y-79065523D01*
X126611047Y-78446476D01*
X123896380Y-80970285D02*
X122896380Y-80970285D01*
X122896380Y-80732190D01*
X122944000Y-80589333D01*
X123039238Y-80494095D01*
X123134476Y-80446476D01*
X123324952Y-80398857D01*
X123467809Y-80398857D01*
X123658285Y-80446476D01*
X123753523Y-80494095D01*
X123848761Y-80589333D01*
X123896380Y-80732190D01*
X123896380Y-80970285D01*
X123896380Y-79446476D02*
X123896380Y-80017904D01*
X123896380Y-79732190D02*
X122896380Y-79732190D01*
X123039238Y-79827428D01*
X123134476Y-79922666D01*
X123182095Y-80017904D01*
X122896380Y-78541714D02*
X122896380Y-79017904D01*
X123372571Y-79065523D01*
X123324952Y-79017904D01*
X123277333Y-78922666D01*
X123277333Y-78684571D01*
X123324952Y-78589333D01*
X123372571Y-78541714D01*
X123467809Y-78494095D01*
X123705904Y-78494095D01*
X123801142Y-78541714D01*
X123848761Y-78589333D01*
X123896380Y-78684571D01*
X123896380Y-78922666D01*
X123848761Y-79017904D01*
X123801142Y-79065523D01*
X120404000Y-80517904D02*
X120356380Y-80613142D01*
X120356380Y-80756000D01*
X120404000Y-80898857D01*
X120499238Y-80994095D01*
X120594476Y-81041714D01*
X120784952Y-81089333D01*
X120927809Y-81089333D01*
X121118285Y-81041714D01*
X121213523Y-80994095D01*
X121308761Y-80898857D01*
X121356380Y-80756000D01*
X121356380Y-80660761D01*
X121308761Y-80517904D01*
X121261142Y-80470285D01*
X120927809Y-80470285D01*
X120927809Y-80660761D01*
X121356380Y-80041714D02*
X120356380Y-80041714D01*
X121356380Y-79470285D01*
X120356380Y-79470285D01*
X121356380Y-78994095D02*
X120356380Y-78994095D01*
X120356380Y-78756000D01*
X120404000Y-78613142D01*
X120499238Y-78517904D01*
X120594476Y-78470285D01*
X120784952Y-78422666D01*
X120927809Y-78422666D01*
X121118285Y-78470285D01*
X121213523Y-78517904D01*
X121308761Y-78613142D01*
X121356380Y-78756000D01*
X121356380Y-78994095D01*
X122587238Y-82732571D02*
X122920571Y-82732571D01*
X123063428Y-83256380D02*
X122587238Y-83256380D01*
X122587238Y-82256380D01*
X123063428Y-82256380D01*
X123396761Y-82256380D02*
X124063428Y-83256380D01*
X124063428Y-82256380D02*
X123396761Y-83256380D01*
X124444380Y-83256380D02*
X124444380Y-82256380D01*
X124825333Y-82256380D01*
X124920571Y-82304000D01*
X124968190Y-82351619D01*
X125015809Y-82446857D01*
X125015809Y-82589714D01*
X124968190Y-82684952D01*
X124920571Y-82732571D01*
X124825333Y-82780190D01*
X124444380Y-82780190D01*
X125396761Y-82970666D02*
X125872952Y-82970666D01*
X125301523Y-83256380D02*
X125634857Y-82256380D01*
X125968190Y-83256380D01*
X126301523Y-83256380D02*
X126301523Y-82256380D01*
X126872952Y-83256380D01*
X126872952Y-82256380D01*
X127301523Y-83208761D02*
X127444380Y-83256380D01*
X127682476Y-83256380D01*
X127777714Y-83208761D01*
X127825333Y-83161142D01*
X127872952Y-83065904D01*
X127872952Y-82970666D01*
X127825333Y-82875428D01*
X127777714Y-82827809D01*
X127682476Y-82780190D01*
X127492000Y-82732571D01*
X127396761Y-82684952D01*
X127349142Y-82637333D01*
X127301523Y-82542095D01*
X127301523Y-82446857D01*
X127349142Y-82351619D01*
X127396761Y-82304000D01*
X127492000Y-82256380D01*
X127730095Y-82256380D01*
X127872952Y-82304000D01*
X128301523Y-83256380D02*
X128301523Y-82256380D01*
X128968190Y-82256380D02*
X129158666Y-82256380D01*
X129253904Y-82304000D01*
X129349142Y-82399238D01*
X129396761Y-82589714D01*
X129396761Y-82923047D01*
X129349142Y-83113523D01*
X129253904Y-83208761D01*
X129158666Y-83256380D01*
X128968190Y-83256380D01*
X128872952Y-83208761D01*
X128777714Y-83113523D01*
X128730095Y-82923047D01*
X128730095Y-82589714D01*
X128777714Y-82399238D01*
X128872952Y-82304000D01*
X128968190Y-82256380D01*
X129825333Y-83256380D02*
X129825333Y-82256380D01*
X130396761Y-83256380D01*
X130396761Y-82256380D01*
X140279428Y-78668571D02*
X140422285Y-78716190D01*
X140469904Y-78763809D01*
X140517523Y-78859047D01*
X140517523Y-79001904D01*
X140469904Y-79097142D01*
X140422285Y-79144761D01*
X140327047Y-79192380D01*
X139946095Y-79192380D01*
X139946095Y-78192380D01*
X140279428Y-78192380D01*
X140374666Y-78240000D01*
X140422285Y-78287619D01*
X140469904Y-78382857D01*
X140469904Y-78478095D01*
X140422285Y-78573333D01*
X140374666Y-78620952D01*
X140279428Y-78668571D01*
X139946095Y-78668571D01*
X137929904Y-78240000D02*
X137834666Y-78192380D01*
X137691809Y-78192380D01*
X137548952Y-78240000D01*
X137453714Y-78335238D01*
X137406095Y-78430476D01*
X137358476Y-78620952D01*
X137358476Y-78763809D01*
X137406095Y-78954285D01*
X137453714Y-79049523D01*
X137548952Y-79144761D01*
X137691809Y-79192380D01*
X137787047Y-79192380D01*
X137929904Y-79144761D01*
X137977523Y-79097142D01*
X137977523Y-78763809D01*
X137787047Y-78763809D01*
X135437523Y-79192380D02*
X135104190Y-78716190D01*
X134866095Y-79192380D02*
X134866095Y-78192380D01*
X135247047Y-78192380D01*
X135342285Y-78240000D01*
X135389904Y-78287619D01*
X135437523Y-78382857D01*
X135437523Y-78525714D01*
X135389904Y-78620952D01*
X135342285Y-78668571D01*
X135247047Y-78716190D01*
X134866095Y-78716190D01*
X136604571Y-74604571D02*
X136937904Y-74604571D01*
X137080761Y-75128380D02*
X136604571Y-75128380D01*
X136604571Y-74128380D01*
X137080761Y-74128380D01*
X137699809Y-74652190D02*
X137699809Y-75128380D01*
X137366476Y-74128380D02*
X137699809Y-74652190D01*
X138033142Y-74128380D01*
X138366476Y-74604571D02*
X138699809Y-74604571D01*
X138842666Y-75128380D02*
X138366476Y-75128380D01*
X138366476Y-74128380D01*
X138842666Y-74128380D01*
X139223619Y-75080761D02*
X139366476Y-75128380D01*
X139604571Y-75128380D01*
X139699809Y-75080761D01*
X139747428Y-75033142D01*
X139795047Y-74937904D01*
X139795047Y-74842666D01*
X139747428Y-74747428D01*
X139699809Y-74699809D01*
X139604571Y-74652190D01*
X139414095Y-74604571D01*
X139318857Y-74556952D01*
X139271238Y-74509333D01*
X139223619Y-74414095D01*
X139223619Y-74318857D01*
X139271238Y-74223619D01*
X139318857Y-74176000D01*
X139414095Y-74128380D01*
X139652190Y-74128380D01*
X139795047Y-74176000D01*
X140112761Y-97416952D02*
X140017523Y-97369333D01*
X139969904Y-97321714D01*
X139922285Y-97226476D01*
X139922285Y-97178857D01*
X139969904Y-97083619D01*
X140017523Y-97036000D01*
X140112761Y-96988380D01*
X140303238Y-96988380D01*
X140398476Y-97036000D01*
X140446095Y-97083619D01*
X140493714Y-97178857D01*
X140493714Y-97226476D01*
X140446095Y-97321714D01*
X140398476Y-97369333D01*
X140303238Y-97416952D01*
X140112761Y-97416952D01*
X140017523Y-97464571D01*
X139969904Y-97512190D01*
X139922285Y-97607428D01*
X139922285Y-97797904D01*
X139969904Y-97893142D01*
X140017523Y-97940761D01*
X140112761Y-97988380D01*
X140303238Y-97988380D01*
X140398476Y-97940761D01*
X140446095Y-97893142D01*
X140493714Y-97797904D01*
X140493714Y-97607428D01*
X140446095Y-97512190D01*
X140398476Y-97464571D01*
X140303238Y-97416952D01*
X137334666Y-96988380D02*
X138001333Y-96988380D01*
X137572761Y-97988380D01*
X135318476Y-96988380D02*
X135128000Y-96988380D01*
X135032761Y-97036000D01*
X134985142Y-97083619D01*
X134889904Y-97226476D01*
X134842285Y-97416952D01*
X134842285Y-97797904D01*
X134889904Y-97893142D01*
X134937523Y-97940761D01*
X135032761Y-97988380D01*
X135223238Y-97988380D01*
X135318476Y-97940761D01*
X135366095Y-97893142D01*
X135413714Y-97797904D01*
X135413714Y-97559809D01*
X135366095Y-97464571D01*
X135318476Y-97416952D01*
X135223238Y-97369333D01*
X135032761Y-97369333D01*
X134937523Y-97416952D01*
X134889904Y-97464571D01*
X134842285Y-97559809D01*
X132826095Y-96988380D02*
X132349904Y-96988380D01*
X132302285Y-97464571D01*
X132349904Y-97416952D01*
X132445142Y-97369333D01*
X132683238Y-97369333D01*
X132778476Y-97416952D01*
X132826095Y-97464571D01*
X132873714Y-97559809D01*
X132873714Y-97797904D01*
X132826095Y-97893142D01*
X132778476Y-97940761D01*
X132683238Y-97988380D01*
X132445142Y-97988380D01*
X132349904Y-97940761D01*
X132302285Y-97893142D01*
X130238476Y-97321714D02*
X130238476Y-97988380D01*
X130000380Y-96940761D02*
X129762285Y-97655047D01*
X130381333Y-97655047D01*
X127174666Y-96988380D02*
X127793714Y-96988380D01*
X127460380Y-97369333D01*
X127603238Y-97369333D01*
X127698476Y-97416952D01*
X127746095Y-97464571D01*
X127793714Y-97559809D01*
X127793714Y-97797904D01*
X127746095Y-97893142D01*
X127698476Y-97940761D01*
X127603238Y-97988380D01*
X127317523Y-97988380D01*
X127222285Y-97940761D01*
X127174666Y-97893142D01*
X124682285Y-97083619D02*
X124729904Y-97036000D01*
X124825142Y-96988380D01*
X125063238Y-96988380D01*
X125158476Y-97036000D01*
X125206095Y-97083619D01*
X125253714Y-97178857D01*
X125253714Y-97274095D01*
X125206095Y-97416952D01*
X124634666Y-97988380D01*
X125253714Y-97988380D01*
X122713714Y-97988380D02*
X122142285Y-97988380D01*
X122428000Y-97988380D02*
X122428000Y-96988380D01*
X122332761Y-97131238D01*
X122237523Y-97226476D01*
X122142285Y-97274095D01*
X131246571Y-114934761D02*
X131246571Y-114601428D01*
X131770380Y-114458571D02*
X131770380Y-114934761D01*
X130770380Y-114934761D01*
X130770380Y-114458571D01*
X131294190Y-113839523D02*
X131770380Y-113839523D01*
X130770380Y-114172857D02*
X131294190Y-113839523D01*
X130770380Y-113506190D01*
X131246571Y-113172857D02*
X131246571Y-112839523D01*
X131770380Y-112696666D02*
X131770380Y-113172857D01*
X130770380Y-113172857D01*
X130770380Y-112696666D01*
X131865619Y-112506190D02*
X131865619Y-111744285D01*
X130770380Y-111649047D02*
X131770380Y-111315714D01*
X130770380Y-110982380D01*
X128706571Y-115030000D02*
X128706571Y-114696666D01*
X129230380Y-114553809D02*
X129230380Y-115030000D01*
X128230380Y-115030000D01*
X128230380Y-114553809D01*
X128754190Y-113934761D02*
X129230380Y-113934761D01*
X128230380Y-114268095D02*
X128754190Y-113934761D01*
X128230380Y-113601428D01*
X128706571Y-113268095D02*
X128706571Y-112934761D01*
X129230380Y-112791904D02*
X129230380Y-113268095D01*
X128230380Y-113268095D01*
X128230380Y-112791904D01*
X129325619Y-112601428D02*
X129325619Y-111839523D01*
X129230380Y-111601428D02*
X128230380Y-111601428D01*
X128706571Y-111601428D02*
X128706571Y-111030000D01*
X129230380Y-111030000D02*
X128230380Y-111030000D01*
X124150380Y-114974523D02*
X123150380Y-114974523D01*
X124150380Y-114403095D01*
X123150380Y-114403095D01*
X123150380Y-113736428D02*
X123150380Y-113545952D01*
X123198000Y-113450714D01*
X123293238Y-113355476D01*
X123483714Y-113307857D01*
X123817047Y-113307857D01*
X124007523Y-113355476D01*
X124102761Y-113450714D01*
X124150380Y-113545952D01*
X124150380Y-113736428D01*
X124102761Y-113831666D01*
X124007523Y-113926904D01*
X123817047Y-113974523D01*
X123483714Y-113974523D01*
X123293238Y-113926904D01*
X123198000Y-113831666D01*
X123150380Y-113736428D01*
X124150380Y-112879285D02*
X123150380Y-112879285D01*
X123150380Y-112641190D01*
X123198000Y-112498333D01*
X123293238Y-112403095D01*
X123388476Y-112355476D01*
X123578952Y-112307857D01*
X123721809Y-112307857D01*
X123912285Y-112355476D01*
X124007523Y-112403095D01*
X124102761Y-112498333D01*
X124150380Y-112641190D01*
X124150380Y-112879285D01*
X120610380Y-114974523D02*
X120610380Y-114403095D01*
X121610380Y-114688809D02*
X120610380Y-114688809D01*
X121610380Y-114069761D02*
X120610380Y-114069761D01*
X121610380Y-113117380D02*
X121610380Y-113593571D01*
X120610380Y-113593571D01*
X120610380Y-112926904D02*
X120610380Y-112355476D01*
X121610380Y-112641190D02*
X120610380Y-112641190D01*
X119070380Y-114879285D02*
X118070380Y-114879285D01*
X118070380Y-114498333D01*
X118118000Y-114403095D01*
X118165619Y-114355476D01*
X118260857Y-114307857D01*
X118403714Y-114307857D01*
X118498952Y-114355476D01*
X118546571Y-114403095D01*
X118594190Y-114498333D01*
X118594190Y-114879285D01*
X118784666Y-113926904D02*
X118784666Y-113450714D01*
X119070380Y-114022142D02*
X118070380Y-113688809D01*
X119070380Y-113355476D01*
X119070380Y-113022142D02*
X118070380Y-113022142D01*
X119070380Y-112450714D01*
X118070380Y-112450714D01*
X115530380Y-114522142D02*
X116244666Y-114522142D01*
X116387523Y-114569761D01*
X116482761Y-114665000D01*
X116530380Y-114807857D01*
X116530380Y-114903095D01*
X116244666Y-114093571D02*
X116244666Y-113617380D01*
X116530380Y-114188809D02*
X115530380Y-113855476D01*
X116530380Y-113522142D01*
X115530380Y-113284047D02*
X116530380Y-113045952D01*
X115816095Y-112855476D01*
X116530380Y-112665000D01*
X115530380Y-112426904D01*
X111704428Y-91511428D02*
X111656809Y-91654285D01*
X111609190Y-91701904D01*
X111513952Y-91749523D01*
X111371095Y-91749523D01*
X111275857Y-91701904D01*
X111228238Y-91654285D01*
X111180619Y-91559047D01*
X111180619Y-91178095D01*
X112180619Y-91178095D01*
X112180619Y-91511428D01*
X112133000Y-91606666D01*
X112085380Y-91654285D01*
X111990142Y-91701904D01*
X111894904Y-91701904D01*
X111799666Y-91654285D01*
X111752047Y-91606666D01*
X111704428Y-91511428D01*
X111704428Y-91178095D01*
X111466333Y-88661904D02*
X111466333Y-89138095D01*
X111180619Y-88566666D02*
X112180619Y-88900000D01*
X111180619Y-89233333D01*
X112133000Y-93218095D02*
X112180619Y-93122857D01*
X112180619Y-92980000D01*
X112133000Y-92837142D01*
X112037761Y-92741904D01*
X111942523Y-92694285D01*
X111752047Y-92646666D01*
X111609190Y-92646666D01*
X111418714Y-92694285D01*
X111323476Y-92741904D01*
X111228238Y-92837142D01*
X111180619Y-92980000D01*
X111180619Y-93075238D01*
X111228238Y-93218095D01*
X111275857Y-93265714D01*
X111609190Y-93265714D01*
X111609190Y-93075238D01*
X111180619Y-93694285D02*
X112180619Y-93694285D01*
X111180619Y-94265714D01*
X112180619Y-94265714D01*
X111180619Y-94741904D02*
X112180619Y-94741904D01*
X112180619Y-94980000D01*
X112133000Y-95122857D01*
X112037761Y-95218095D01*
X111942523Y-95265714D01*
X111752047Y-95313333D01*
X111609190Y-95313333D01*
X111418714Y-95265714D01*
X111323476Y-95218095D01*
X111228238Y-95122857D01*
X111180619Y-94980000D01*
X111180619Y-94741904D01*
X113720619Y-90130476D02*
X114720619Y-90130476D01*
X114720619Y-90368571D01*
X114673000Y-90511428D01*
X114577761Y-90606666D01*
X114482523Y-90654285D01*
X114292047Y-90701904D01*
X114149190Y-90701904D01*
X113958714Y-90654285D01*
X113863476Y-90606666D01*
X113768238Y-90511428D01*
X113720619Y-90368571D01*
X113720619Y-90130476D01*
X113720619Y-91130476D02*
X114720619Y-91130476D01*
X114006333Y-91463809D01*
X114720619Y-91797142D01*
X113720619Y-91797142D01*
X114720619Y-92178095D02*
X113720619Y-92844761D01*
X114720619Y-92844761D02*
X113720619Y-92178095D01*
D12*
%TO.C,U3*%
X108458000Y-99060000D02*
X171958000Y-99060000D01*
X171958000Y-99060000D02*
X171958000Y-124460000D01*
X171958000Y-124460000D02*
X108458000Y-124460000D01*
X108458000Y-124460000D02*
X108458000Y-99060000D01*
%TO.C,SW1*%
X130444000Y-90128000D02*
X129174000Y-90128000D01*
X127904000Y-90128000D02*
X126634000Y-90128000D01*
X123180000Y-88527000D02*
X123740000Y-88527000D01*
X140294000Y-93748000D02*
X140294000Y-92541333D01*
X124574000Y-93748000D02*
X124574000Y-92541333D01*
X127114000Y-93748000D02*
X127114000Y-92541333D01*
X121794000Y-93748000D02*
X121794000Y-92541333D01*
X128260000Y-88527000D02*
X128820000Y-88527000D01*
X122634000Y-93748000D02*
X122634000Y-92541333D01*
X131714000Y-92541333D02*
X132984000Y-92541333D01*
X125720000Y-88527000D02*
X126280000Y-88527000D01*
X124214000Y-93748000D02*
X124214000Y-92541333D01*
X124094000Y-90128000D02*
X124094000Y-93748000D01*
X119839000Y-95588000D02*
X119839000Y-94205000D01*
X132674000Y-93748000D02*
X132674000Y-92541333D01*
X140960000Y-88527000D02*
X142080000Y-88527000D01*
X135524000Y-93748000D02*
X135524000Y-90128000D01*
X131954000Y-93748000D02*
X131954000Y-92541333D01*
X140054000Y-93748000D02*
X140054000Y-92541333D01*
X140604000Y-93748000D02*
X140604000Y-90128000D01*
X130799000Y-95348000D02*
X131359000Y-95348000D01*
X127354000Y-93748000D02*
X127354000Y-92541333D01*
X134254000Y-93748000D02*
X135524000Y-93748000D01*
X137994000Y-93748000D02*
X137994000Y-92541333D01*
X124454000Y-93748000D02*
X124454000Y-92541333D01*
X124094000Y-92541333D02*
X125364000Y-92541333D01*
X129414000Y-93748000D02*
X129414000Y-92541333D01*
X135454000Y-93748000D02*
X135454000Y-92541333D01*
X121674000Y-93748000D02*
X121674000Y-92541333D01*
X125294000Y-93748000D02*
X125294000Y-92541333D01*
X140604000Y-90128000D02*
X139334000Y-90128000D01*
X129654000Y-93748000D02*
X129654000Y-92541333D01*
X137754000Y-93748000D02*
X137754000Y-92541333D01*
X128259000Y-95348000D02*
X128820000Y-95348000D01*
X120079000Y-95348000D02*
X121149000Y-95348000D01*
X132554000Y-93748000D02*
X132554000Y-92541333D01*
X122824000Y-90128000D02*
X121554000Y-90128000D01*
X135879000Y-95348000D02*
X136439000Y-95348000D01*
X134734000Y-93748000D02*
X134734000Y-92541333D01*
X137874000Y-93748000D02*
X137874000Y-92541333D01*
X124814000Y-93748000D02*
X124814000Y-92541333D01*
X140174000Y-93748000D02*
X140174000Y-92541333D01*
X127594000Y-93748000D02*
X127594000Y-92541333D01*
X127904000Y-93748000D02*
X127904000Y-90128000D01*
X132984000Y-93748000D02*
X132984000Y-90128000D01*
X129174000Y-90128000D02*
X129174000Y-93748000D01*
X124934000Y-93748000D02*
X124934000Y-92541333D01*
X132434000Y-93748000D02*
X132434000Y-92541333D01*
X132984000Y-90128000D02*
X131714000Y-90128000D01*
X125364000Y-90128000D02*
X124094000Y-90128000D01*
X130134000Y-93748000D02*
X130134000Y-92541333D01*
X129534000Y-93748000D02*
X129534000Y-92541333D01*
X124094000Y-93748000D02*
X125364000Y-93748000D01*
X139934000Y-93748000D02*
X139934000Y-92541333D01*
X133339000Y-95348000D02*
X133899000Y-95348000D01*
X132314000Y-93748000D02*
X132314000Y-92541333D01*
X130374000Y-93748000D02*
X130374000Y-92541333D01*
X138064000Y-93748000D02*
X138064000Y-90128000D01*
X137274000Y-93748000D02*
X137274000Y-92541333D01*
X131714000Y-93748000D02*
X132984000Y-93748000D01*
X139334000Y-93748000D02*
X140604000Y-93748000D01*
X134254000Y-90128000D02*
X134254000Y-93748000D01*
X134254000Y-92541333D02*
X135524000Y-92541333D01*
X136794000Y-90128000D02*
X136794000Y-93748000D01*
X136794000Y-92541333D02*
X138064000Y-92541333D01*
X134974000Y-93748000D02*
X134974000Y-92541333D01*
X137394000Y-93748000D02*
X137394000Y-92541333D01*
X139334000Y-92541333D02*
X140604000Y-92541333D01*
X125719000Y-95348000D02*
X126280000Y-95348000D01*
X129774000Y-93748000D02*
X129774000Y-92541333D01*
X135334000Y-93748000D02*
X135334000Y-92541333D01*
X127714000Y-93748000D02*
X127714000Y-92541333D01*
X127234000Y-93748000D02*
X127234000Y-92541333D01*
X140534000Y-93748000D02*
X140534000Y-92541333D01*
X138420000Y-88527000D02*
X138979000Y-88527000D01*
X121554000Y-92541333D02*
X122824000Y-92541333D01*
X130444000Y-93748000D02*
X130444000Y-90128000D01*
X135524000Y-90128000D02*
X134254000Y-90128000D01*
X138419000Y-95348000D02*
X138979000Y-95348000D01*
X132194000Y-93748000D02*
X132194000Y-92541333D01*
X137154000Y-93748000D02*
X137154000Y-92541333D01*
X132074000Y-93748000D02*
X132074000Y-92541333D01*
X137514000Y-93748000D02*
X137514000Y-92541333D01*
X131714000Y-90128000D02*
X131714000Y-93748000D01*
X120079000Y-88527000D02*
X121199000Y-88527000D01*
X133340000Y-88527000D02*
X133900000Y-88527000D01*
X121554000Y-90128000D02*
X121554000Y-93748000D01*
X122274000Y-93748000D02*
X122274000Y-92541333D01*
X125364000Y-93748000D02*
X125364000Y-90128000D01*
X126634000Y-90128000D02*
X126634000Y-93748000D01*
X127474000Y-93748000D02*
X127474000Y-92541333D01*
X136914000Y-93748000D02*
X136914000Y-92541333D01*
X122034000Y-93748000D02*
X122034000Y-92541333D01*
X135214000Y-93748000D02*
X135214000Y-92541333D01*
X122154000Y-93748000D02*
X122154000Y-92541333D01*
X122754000Y-93748000D02*
X122754000Y-92541333D01*
X122394000Y-93748000D02*
X122394000Y-92541333D01*
X138064000Y-90128000D02*
X136794000Y-90128000D01*
X139454000Y-93748000D02*
X139454000Y-92541333D01*
X125054000Y-93748000D02*
X125054000Y-92541333D01*
X120079000Y-95348000D02*
X120079000Y-88527000D01*
X126754000Y-93748000D02*
X126754000Y-92541333D01*
X132914000Y-93748000D02*
X132914000Y-92541333D01*
X126874000Y-93748000D02*
X126874000Y-92541333D01*
X126634000Y-92541333D02*
X127904000Y-92541333D01*
X121914000Y-93748000D02*
X121914000Y-92541333D01*
X139334000Y-90128000D02*
X139334000Y-93748000D01*
X125174000Y-93748000D02*
X125174000Y-92541333D01*
X137634000Y-93748000D02*
X137634000Y-92541333D01*
X139574000Y-93748000D02*
X139574000Y-92541333D01*
X126634000Y-93748000D02*
X127904000Y-93748000D01*
X124334000Y-93748000D02*
X124334000Y-92541333D01*
X122514000Y-93748000D02*
X122514000Y-92541333D01*
X121554000Y-93748000D02*
X122824000Y-93748000D01*
X139814000Y-93748000D02*
X139814000Y-92541333D01*
X135094000Y-93748000D02*
X135094000Y-92541333D01*
X134374000Y-93748000D02*
X134374000Y-92541333D01*
X137034000Y-93748000D02*
X137034000Y-92541333D01*
X136794000Y-93748000D02*
X138064000Y-93748000D01*
X126994000Y-93748000D02*
X126994000Y-92541333D01*
X123229000Y-95348000D02*
X123740000Y-95348000D01*
X135880000Y-88527000D02*
X136440000Y-88527000D01*
X129174000Y-93748000D02*
X130444000Y-93748000D01*
X132794000Y-93748000D02*
X132794000Y-92541333D01*
X129894000Y-93748000D02*
X129894000Y-92541333D01*
X130800000Y-88527000D02*
X131360000Y-88527000D01*
X130254000Y-93748000D02*
X130254000Y-92541333D01*
X129174000Y-92541333D02*
X130444000Y-92541333D01*
X129294000Y-93748000D02*
X129294000Y-92541333D01*
X140414000Y-93748000D02*
X140414000Y-92541333D01*
X140959000Y-95348000D02*
X142080000Y-95348000D01*
X134494000Y-93748000D02*
X134494000Y-92541333D01*
X119839000Y-95588000D02*
X121149000Y-95588000D01*
X139694000Y-93748000D02*
X139694000Y-92541333D01*
X122824000Y-93748000D02*
X122824000Y-90128000D01*
X134614000Y-93748000D02*
X134614000Y-92541333D01*
X142080000Y-95348000D02*
X142080000Y-88527000D01*
X127834000Y-93748000D02*
X127834000Y-92541333D01*
X134854000Y-93748000D02*
X134854000Y-92541333D01*
X124694000Y-93748000D02*
X124694000Y-92541333D01*
X131834000Y-93748000D02*
X131834000Y-92541333D01*
X130014000Y-93748000D02*
X130014000Y-92541333D01*
%TO.C,R3*%
X140620000Y-80884000D02*
X140620000Y-84724000D01*
X138780000Y-80884000D02*
X138780000Y-84724000D01*
%TO.C,R2*%
X136113000Y-80884000D02*
X136113000Y-84724000D01*
X137953000Y-80884000D02*
X137953000Y-84724000D01*
%TO.C,R1*%
X133700000Y-80884000D02*
X133700000Y-84724000D01*
X135540000Y-80884000D02*
X135540000Y-84724000D01*
%TO.C,J4*%
X108184000Y-75054000D02*
X118304000Y-75054000D01*
X107944000Y-85215000D02*
X108444000Y-85215000D01*
X108184000Y-84975000D02*
X118304000Y-84975000D01*
X114517000Y-81338000D02*
X114470000Y-81384000D01*
X108184000Y-82915000D02*
X118304000Y-82915000D01*
X114710000Y-81554000D02*
X114675000Y-81589000D01*
X107944000Y-84475000D02*
X107944000Y-85215000D01*
X108184000Y-75054000D02*
X108184000Y-84975000D01*
X118304000Y-75054000D02*
X118304000Y-84975000D01*
X117019000Y-79246000D02*
X116972000Y-79292000D01*
X116814000Y-79040000D02*
X116779000Y-79076000D01*
X108184000Y-78014000D02*
X118304000Y-78014000D01*
X108184000Y-84415000D02*
X118304000Y-84415000D01*
X112279000Y-80999000D02*
G75*
G03*
X112279427Y-79631958I-1534993J684001D01*
G01*
X110060000Y-81850000D02*
G75*
G03*
X110772805Y-81995253I683999J1535001D01*
G01*
X110744000Y-81995000D02*
G75*
G03*
X111427318Y-81849756I1J1679992D01*
G01*
X109209000Y-79631000D02*
G75*
G03*
X109208573Y-80998042I1534993J-684001D01*
G01*
X111428000Y-78780000D02*
G75*
G03*
X110060958Y-78779573I-684001J-1534993D01*
G01*
X117424000Y-80315000D02*
G75*
G03*
X117424000Y-80315000I-1680000J0D01*
G01*
%TD*%
M02*
